<?xml version="1.0" encoding="UTF-8" standalone="no"?>
<svg
   xmlns:dc="http://purl.org/dc/elements/1.1/"
   xmlns:cc="http://creativecommons.org/ns#"
   xmlns:rdf="http://www.w3.org/1999/02/22-rdf-syntax-ns#"
   xmlns:svg="http://www.w3.org/2000/svg"
   xmlns="http://www.w3.org/2000/svg"
   xmlns:sodipodi="http://sodipodi.sourceforge.net/DTD/sodipodi-0.dtd"
   xmlns:inkscape="http://www.inkscape.org/namespaces/inkscape"
   sodipodi:docname="logo.svg"
   inkscape:version="1.0 (4035a4fb49, 2020-05-01)"
   id="svg8"
   version="1.1"
   viewBox="0 0 190.85211 106.99049"
   height="106.99049mm"
   width="190.85211mm">
  <defs
     id="defs2" />
  <sodipodi:namedview
     inkscape:window-maximized="0"
     inkscape:window-y="15"
     inkscape:window-x="1935"
     inkscape:window-height="1050"
     inkscape:window-width="1890"
     inkscape:guide-bbox="true"
     showguides="true"
     showgrid="false"
     inkscape:document-rotation="0"
     inkscape:current-layer="layer1"
     inkscape:document-units="mm"
     inkscape:cy="578.51534"
     inkscape:cx="777.23946"
     inkscape:zoom="0.49497475"
     inkscape:pageshadow="2"
     inkscape:pageopacity="0.0"
     borderopacity="1.0"
     bordercolor="#666666"
     pagecolor="#ffffff"
     id="base">
    <inkscape:grid
       originy="-2.5901516"
       originx="-7.9544008"
       id="grid340"
       type="xygrid" />
  </sodipodi:namedview>
  <metadata
     id="metadata5">
    <rdf:RDF>
      <cc:Work
         rdf:about="">
        <dc:format>image/svg+xml</dc:format>
        <dc:type
           rdf:resource="http://purl.org/dc/dcmitype/StillImage" />
        <dc:title></dc:title>
      </cc:Work>
    </rdf:RDF>
  </metadata>
  <g
     transform="translate(-7.9544008,-2.5901516)"
     id="layer1"
     inkscape:groupmode="layer"
     inkscape:label="Layer 1">
    <g
       transform="matrix(0.17877676,0,0,0.18053685,7.9544213,2.5901696)"
       id="g338"
       style="clip-rule:evenodd;fill-rule:evenodd;stroke-miterlimit:2.414">
      <g
         transform="translate(-56.7796,-157.923)"
         id="g283">
        <g
   transform="matrix(1.60901,0,0,1.60901,549.682,296.412)"
   id="g197">
            <path
   d="M 0,196.174 H 49.417 L 24.288,158.702 Z m -306.339,39.238 217.66,-321.483 h 60.633 l 48.75,70.262 11.959,-17.336 11.96,-17.337 11.959,-17.336 11.958,-17.336 68.127,0.428 220.473,322.773 -30.374,44.198 H 273.463 L 79.082,-0.597 54.715,35.932 l 137.032,200.152 -31.602,45.611 -275.81,-1.221 -31.94,-46.337 110.994,-162.491 -48.724,-68.944 -110.898,162.212 -75.136,109.974 44.972,-0.55 163.347,-241.385 4.632,6.434 -161.528,241.086 -56.481,10e-4 z"
   style="fill:#231f20"
   id="path195" />

        </g>

        <g
   transform="matrix(1.60901,0,0,1.60901,424.32,674.973)"
   id="g201">
            <path
   d="M 0,-315.461 H 45.383 L 258.2,-0.145 51.245,0 74.168,-32.526 h 120.047 z"
   style="fill:#e9c103"
   id="path199" />

        </g>

        <g
   transform="matrix(1.60901,0,0,1.60901,374.524,488.596)"
   id="g205">
            <path
   d="m 0,155.096 105.117,-155.402 22.315,32.758 -60.096,90.103 218.156,-0.146 -20.719,32.993 z"
   style="fill:#ffffff"
   id="path203" />

        </g>

        <g
   transform="matrix(0.905105,-1.3303,-1.3303,-0.905105,368.214,781.12)"
   id="g209">
            <path
   d="M -67.571,145.706 H 263.118 L 248.596,109.486 -42.89,109.431 Z"
   style="fill:#ffffff"
   id="path207" />

        </g>

        <g
   transform="matrix(0.931742,-1.31178,-1.31178,-0.931742,710.891,419.704)"
   id="g213">
            <path
   d="M -7.647,24.673 H 51.355 L 50.068,16.43 -11.993,15.909 Z"
   style="fill:#231f20"
   id="path211" />

        </g>

        <g
   transform="matrix(1.60901,0,0,1.60901,91.0993,776.323)"
   id="g217">
            
        </g>

        <g
   transform="matrix(1.60901,0,0,1.60901,267.158,840.723)"
   id="g221">
            
        </g>

        <g
   transform="matrix(1.60901,0,0,1.60901,300.452,812.873)"
   id="g225">
            
        </g>

        <g
   transform="matrix(0.386162,0,0,0.386162,-52.027,22.7358)"
   id="g229">
            
        </g>

        <g
   transform="matrix(-1.60901,0,0,1.60901,1107.75,685.187)"
   id="g233">
            
        </g>

        <g
   transform="matrix(1.60901,0,0,1.60901,559.382,775.483)"
   id="g237">
            
        </g>

        <g
   transform="matrix(1.60901,0,0,1.60901,649.186,848.616)"
   id="g241">
            
        </g>

        <g
   transform="matrix(1.60901,0,0,1.60901,649.186,848.616)"
   id="g245">
            
        </g>

        <g
   transform="matrix(1.60901,0,0,1.60901,708.112,813.106)"
   id="g249">
            
        </g>

        <g
   transform="matrix(1.60901,0,0,1.60901,401.412,845.143)"
   id="g253">
            
        </g>

        <g
   transform="matrix(1.60901,0,0,1.60901,401.412,845.143)"
   id="g257">
            
        </g>

        <g
   transform="matrix(1.60901,0,0,1.60901,691.714,677.806)"
   id="g261">
            <path
   d="M 0,-314.414 42.655,-314.72 181.04,-114.701 258.591,-0.305 216.384,0.306 84.703,-190.388 Z"
   style="fill:#e9c103"
   id="path259" />

        </g>

        <g
   transform="matrix(0.890928,-1.33983,-1.33983,-0.890928,656.996,385.907)"
   id="g265">
            <path
   d="m 8.326,21.339 h 45.123 l -14.651,-37.551 -44.78,1.691 z"
   style="fill:#ffffff"
   id="path263" />

        </g>

        <g
   transform="matrix(1.60901,0,0,1.60901,990.889,843.38)"
   id="g269">
            
        </g>

        <g
   transform="matrix(1.60901,0,0,1.60901,1043.68,831.916)"
   id="g273">
            
        </g>

        <g
   transform="matrix(1.60901,0,0,1.60901,761.325,809.233)"
   id="g277">
            
        </g>

        <g
   transform="matrix(1.60901,0,0,1.60901,850.941,854.239)"
   id="g281">
            
        </g>

    </g>
    </g>
  </g>
</svg>
